<?xml version="1.0" encoding="UTF-8"?>
<svg version="1.1" xmlns="http://www.w3.org/2000/svg" width="254" height="256">
<path d="M0 0 C-0.47385371 3.12743447 -1.2210863 5.47754641 -2.5625 8.375 C-4.11044636 12.2785169 -4.47960988 14.84338102 -4 19 C-2.99828732 20.82213586 -2.99828732 20.82213586 -1 22 C2.4549488 22.39578725 2.4549488 22.39578725 6.3125 22.375 C14.55933069 22.64321358 14.55933069 22.64321358 17.875 25.4375 C20.85287592 29.02846802 21.34962172 31.19324119 21.28125 35.90234375 C20.68263642 40.36700335 18.04357779 43.10136357 14.75 45.9375 C10.90789909 47.42194808 7.81012618 47.41219356 4 46 C1.70048638 44.34305697 -0.30465414 42.56838403 -2.3359375 40.59375 C-5.73248848 37.34071526 -6.65926097 38 -12 38 C-13.98 41.96 -15.96 45.92 -18 50 C-19.39863281 49.67902344 -20.79726562 49.35804687 -22.23828125 49.02734375 C-42.25137324 45.05288801 -60.88582988 47.62504068 -77.99609375 58.8359375 C-92.8418779 69.53107979 -102.017503 83.14183375 -105.5 101.1875 C-106.41287966 108.14820739 -106.37413814 115.00079317 -106 122 C-105.95359375 123.03898438 -105.9071875 124.07796875 -105.859375 125.1484375 C-104.34527628 139.69175414 -94.2085281 154.68081153 -83.5625 164.25 C-82.38979942 165.18552518 -81.20165786 166.10197304 -80 167 C-79.34644531 167.50144531 -78.69289063 168.00289062 -78.01953125 168.51953125 C-62.27957416 179.84427269 -42.06804673 181.57193369 -23.30029297 178.56787109 C-7.507781 174.8567774 6.30645349 164.17616665 15.1171875 150.78125 C19.77226401 143.23645092 22.89350571 135.652098 25 127 C25.18949219 126.23300781 25.37898437 125.46601563 25.57421875 124.67578125 C27.84202805 110.42395214 26.37070239 94.70372554 18.765625 82.203125 C18.18296875 81.14609375 17.6003125 80.0890625 17 79 C18.36207958 74.91376127 20.26613164 74.0105445 24 72 C26.75 71.9375 26.75 71.9375 29 73 C30.37911967 75.37515054 30.94052604 77.76287158 31.60546875 80.4140625 C33.03971063 85.78652657 33.95510863 89.02480765 39 92 C42.8510952 93.9255476 47.1211016 93.5324676 51.1640625 92.38671875 C55.96923768 90.34406937 58.36749082 87.90048865 60.37890625 83.08203125 C61.67966093 78.72163977 61.38410533 75.31693255 60.125 71 C56.94436875 66.50969706 52.6042959 63.9197974 48 61 C48.27912628 57.56140181 48.65239956 56.3071956 51.28515625 53.98046875 C52.20167969 53.38878906 53.11820313 52.79710937 54.0625 52.1875 C55.44115234 51.28064453 55.44115234 51.28064453 56.84765625 50.35546875 C57.91306641 49.68451172 57.91306641 49.68451172 59 49 C66.54117037 52.24556699 69.51579936 61.44787116 72.44140625 68.62890625 C84.04628802 100.17436242 83.61897203 133.51717877 69.625 164.25 C52.6909765 197.54979117 26.11779129 218.72627139 -8.99609375 230.34765625 C-16.02007237 232.49408564 -22.6652928 233.79018716 -30 234 C-31.09610596 234.03867187 -31.09610596 234.03867187 -32.21435547 234.078125 C-51.36434212 234.6840174 -68.33668572 232.54141504 -86 225 C-86.85980469 224.64808594 -87.71960938 224.29617187 -88.60546875 223.93359375 C-90.7730547 223.01668571 -92.88656688 222.03530978 -95 221 C-95.83402344 220.59523437 -96.66804688 220.19046875 -97.52734375 219.7734375 C-123.92359994 206.2155326 -144.41779472 180.92219481 -154 153 C-162.7319406 124.60057105 -164.33101242 92.27760806 -150.18237305 65.28955078 C-149.15632694 63.30271196 -148.2550319 61.32453537 -147.40625 59.2578125 C-142.5872701 48.0938424 -135.05322523 38.9453124 -127 30 C-126.42894531 29.34515625 -125.85789063 28.6903125 -125.26953125 28.015625 C-110.88443639 12.48416011 -90.9013786 3.0169886 -71 -3 C-69.82566406 -3.36351562 -68.65132813 -3.72703125 -67.44140625 -4.1015625 C-46.3407554 -9.4202189 -20.31356266 -7.75608756 0 0 Z " fill="#FC8D1F" transform="translate(165,12)"/>
<path d="M0 0 C6.9161595 4.84225007 11.91448282 10.3964716 14.69140625 18.453125 C16.07920015 27.64725958 13.88053039 34.8343474 8.69140625 42.453125 C3.73905908 48.08347208 -1.06503086 51.0252863 -8.640625 51.7890625 C-17.12980118 51.88433945 -23.73306626 51.49089129 -30.26953125 45.72265625 C-36.13987228 39.51792871 -39.45343323 33.0996478 -39.87109375 24.515625 C-39.54516607 16.25178121 -36.46317634 10.1229022 -30.43359375 4.515625 C-22.20678592 -2.48920928 -9.86028654 -4.6100041 0 0 Z " fill="#FB323C" transform="translate(137.30859375,100.546875)"/>
</svg>